<svg viewBox="0 0 48 48" fill="none" xmlns="http://www.w3.org/2000/svg"><path data-follow-stroke="#333" d="M15 14.385C19.126 16 24.01 16 24.01 16s4.87 0 8.99-1.615c4.502 5.254 7.657 12.18 9.73 18.013C44.829 38.303 40.2 44 33.934 44H14.02c-6.252 0-10.874-5.67-8.786-11.563C7.298 26.614 10.455 19.686 15 14.385Z" stroke="#333" stroke-width="4" stroke-linejoin="round"/><path data-follow-stroke="#333" d="M18 28h12m-12 6h12m-5.991-6v10M30 22l-6 6-6-6" stroke="#333" stroke-width="4" stroke-linecap="round" stroke-linejoin="round"/><path data-follow-stroke="#333" clip-rule="evenodd" d="M24 16c7.18 0 13-2.686 13-6s-5.82-6-13-6-13 2.686-13 6 5.82 6 13 6Z" stroke="#333" stroke-width="4" stroke-linecap="round" stroke-linejoin="round"/></svg>